<svg width="33" height="46" viewBox="0 0 33 46" fill="none" xmlns="http://www.w3.org/2000/svg">
<path d="M16.7187 0C16.0898 0 15.4726 0.015625 14.875 0.0625C14.8008 0.066406 14.7305 0.085938 14.6562 0.09375C14.1328 0.140625 13.6211 0.203125 13.125 0.28125C12.5937 0.367188 12.0625 0.46875 11.5625 0.59375C11.539 0.597656 11.5195 0.621094 11.5 0.625C10.4453 0.894531 9.46873 1.25 8.56248 1.6875C7.64842 2.12891 6.82029 2.67188 6.06248 3.28125C5.68748 3.58594 5.33592 3.90625 4.99998 4.25C3.67186 5.60938 2.66795 7.25781 1.99998 9.21875C1.83983 9.69141 1.68358 10.1797 1.56248 10.6875C1.45311 11.1406 1.35936 11.6172 1.28123 12.0938C1.23045 12.4023 1.19139 12.7148 1.15623 13.0312C1.12889 13.2852 1.08201 13.5195 1.06248 13.7812C1.01561 14.3711 0.999982 14.9766 0.999982 15.5938C0.999982 16.1016 1.08983 16.7461 1.18748 17.4375C1.29295 18.1836 1.44529 18.9922 1.62498 19.8125C1.78514 20.5469 1.94139 21.2578 2.12498 21.9375C2.14451 22.0156 2.16795 22.1094 2.18748 22.1875C2.31248 22.6367 2.44139 23.0898 2.56248 23.4688C2.26951 23.7188 1.97264 23.8789 1.68748 24.3125C1.20701 25.0469 0.855451 26.0742 0.999982 27.3125C1.42186 30.8867 3.66404 32.1641 4.40623 32.5312C4.69139 34.2031 5.55467 36.2656 6.96873 38.375C8.48436 40.6367 10.5781 42.8086 13.125 44.0312C13.1719 44.0547 13.2031 44.1016 13.25 44.125C14.168 45.2227 15.4648 46 17 46C18.5351 46 19.832 45.2227 20.75 44.125C20.7969 44.1016 20.8281 44.0547 20.875 44.0312C23.414 42.8047 25.4648 40.6367 26.9687 38.375C28.3672 36.2695 29.2148 34.1953 29.5 32.5312C30.2344 32.1836 32.5429 30.9414 32.9687 27.3438C33.1133 26.1016 32.7344 25.0508 32.25 24.3125C31.9609 23.875 31.6679 23.7227 31.375 23.4688C31.539 22.9492 31.7344 22.3633 31.9062 21.7188C31.9179 21.6797 31.9258 21.6328 31.9375 21.5938C31.957 21.5273 31.9804 21.4453 32 21.375C32.1797 20.6719 32.3047 19.9922 32.4375 19.3125C32.5898 18.5273 32.7265 17.7539 32.8125 17C32.8398 16.7812 32.8554 16.5586 32.875 16.3438C32.914 15.9492 32.9492 15.5625 32.9687 15.1562C32.9883 14.7656 33 14.3828 33 14C33 13.7305 32.9883 13.4219 32.9687 13.125C32.9648 13.082 32.9726 13.043 32.9687 13C32.9492 12.7539 32.9062 12.5117 32.875 12.25C32.8554 12.1055 32.8359 11.957 32.8125 11.8125C32.789 11.668 32.7773 11.5234 32.75 11.375C32.7265 11.2578 32.7148 11.1484 32.6875 11.0312C32.6523 10.8672 32.6054 10.6953 32.5625 10.5312C32.5351 10.4258 32.5 10.3203 32.4687 10.2188C32.4179 10.043 32.3711 9.86328 32.3125 9.6875C32.2812 9.58984 32.2539 9.5 32.2187 9.40625C32.1562 9.23828 32.0703 9.07422 32 8.90625C31.8867 8.64062 31.7617 8.38281 31.625 8.125C31.5703 8.01953 31.5273 7.91406 31.4687 7.8125C31.3906 7.67188 31.2773 7.54297 31.1875 7.40625C31.1211 7.30469 31.0703 7.19141 31 7.09375C30.9062 6.96484 30.8203 6.83984 30.7187 6.71875C30.6406 6.62109 30.5508 6.53125 30.4687 6.4375C30.3672 6.32422 30.2656 6.19922 30.1562 6.09375C30.0547 5.99219 29.9492 5.91016 29.8437 5.8125C29.6289 5.61719 29.3945 5.44922 29.1562 5.28125C28.1601 4.58203 26.9726 4.125 25.5625 4.03125C25.289 3.62891 24.8594 3.11719 24.2812 2.59375C24.0547 2.38672 23.8125 2.17188 23.5312 1.96875C23.5 1.94531 23.4687 1.92969 23.4375 1.90625C23.4062 1.88672 23.375 1.86328 23.3437 1.84375C23.0664 1.65625 22.7656 1.48438 22.4375 1.3125C21.4297 0.78125 20.1953 0.324219 18.625 0.125C18.5547 0.117188 18.4804 0.101563 18.4062 0.09375C18.3476 0.085938 18.2773 0.101563 18.2187 0.09375C17.7461 0.046875 17.2461 0 16.7187 0ZM24.5 12.375C25.4726 13.9258 27 16.8633 27 20C27.0195 21.668 27.664 24.4453 29.9062 24.7188C30.1054 24.8672 30.3711 25.0977 30.5937 25.4375C30.8711 25.8633 31.0586 26.375 30.9687 27.125C30.5859 30.3477 28.3437 30.9688 28.3437 30.9688C27.9687 31.0898 27.6992 31.4219 27.6562 31.8125C27.539 32.918 26.7031 35.1602 25.3125 37.25C23.9219 39.3398 22.0117 41.332 19.9062 42.3125C19.7422 42.3867 19.6015 42.5078 19.5 42.6562C18.9609 43.4609 18.0469 44 17 44C15.9531 44 15.039 43.4609 14.5 42.6562C14.3984 42.5078 14.2578 42.3867 14.0937 42.3125C11.9805 41.332 10.0586 39.3398 8.65623 37.25C7.25389 35.1602 6.39451 32.9141 6.28123 31.8125C6.23436 31.4414 5.98045 31.125 5.62498 31C5.62498 31 3.37889 30.3242 2.99998 27.0938C2.91014 26.3398 3.10154 25.8203 3.37498 25.4062C3.48826 25.2344 3.62498 25.0938 3.74998 24.9688C3.82811 24.9883 3.91795 25 3.99998 25C5.97264 25 6.65623 21.7148 6.99998 20C7.62498 16.8789 11.0625 16 16 16C20.6523 16 23.2656 13.8398 24.5 12.375ZM11.5 25C10.6719 25 9.99998 25.6719 9.99998 26.5C9.99998 27.3281 10.6719 28 11.5 28C12.3281 28 13 27.3281 13 26.5C13 25.6719 12.3281 25 11.5 25ZM22.5 25C21.6719 25 21 25.6719 21 26.5C21 27.3281 21.6719 28 22.5 28C23.3281 28 24 27.3281 24 26.5C24 25.6719 23.3281 25 22.5 25Z" fill="white"/>
</svg>
