<svg width="58" height="59" viewBox="0 0 58 59" fill="none" xmlns="http://www.w3.org/2000/svg">
<path d="M51.7891 52.7812C51.7891 52.5208 51.8802 52.3255 52.0625 52.1953C52.2448 52.0391 52.4661 51.9349 52.7266 51.8828C53.013 51.8047 53.2865 51.7656 53.5469 51.7656C53.8333 51.7656 54.0807 51.7656 54.2891 51.7656C54.5495 51.7656 54.849 51.7786 55.1875 51.8047C55.5521 51.8047 55.8906 51.8568 56.2031 51.9609C56.5156 52.0391 56.776 52.1823 56.9844 52.3906C57.2188 52.5729 57.3359 52.8333 57.3359 53.1719C57.3359 53.3021 57.3229 53.5885 57.2969 54.0312C57.2969 54.4479 57.2839 54.9036 57.2578 55.3984C57.2578 55.8932 57.2448 56.349 57.2188 56.7656C57.2188 57.1562 57.2057 57.3646 57.1797 57.3906C56.9714 57.6771 56.6979 57.8333 56.3594 57.8594C56.0469 57.9115 55.7474 57.9375 55.4609 57.9375C54.6536 57.9375 54.0547 57.8984 53.6641 57.8203C53.2734 57.7422 52.987 57.5859 52.8047 57.3516C52.6224 57.1172 52.5052 56.7917 52.4531 56.375C52.4271 55.9583 52.362 55.4115 52.2578 54.7344C52.1797 54.4219 52.0755 54.1094 51.9453 53.7969C51.8411 53.4844 51.7891 53.1458 51.7891 52.7812Z" fill="white"/>
<path d="M50.5 49.8516C50.5 50.6328 50.2786 51.4401 49.8359 52.2734C49.4193 53.1068 48.8724 53.875 48.1953 54.5781C47.5182 55.2552 46.737 55.8151 45.8516 56.2578C44.9922 56.7005 44.1328 56.9219 43.2734 56.9219C42.0495 56.9219 40.9948 56.6875 40.1094 56.2188C39.224 55.724 38.4557 55.0729 37.8047 54.2656C37.1536 53.4323 36.6198 52.4948 36.2031 51.4531C35.8125 50.4115 35.5 49.3438 35.2656 48.25C35.0312 47.1302 34.862 46.0234 34.7578 44.9297C34.6797 43.8099 34.6406 42.7943 34.6406 41.8828C34.6406 41.1016 34.6797 40.1771 34.7578 39.1094C34.862 38.0417 35.0182 36.9349 35.2266 35.7891C35.4609 34.6432 35.7734 33.5104 36.1641 32.3906C36.5547 31.2708 37.0365 30.2682 37.6094 29.3828C38.2083 28.4974 38.9115 27.7812 39.7188 27.2344C40.5521 26.6875 41.5026 26.4141 42.5703 26.4141C43.4036 26.4141 44.1458 26.5833 44.7969 26.9219C45.474 27.2604 46.0339 27.7161 46.4766 28.2891C46.9453 28.8359 47.2969 29.474 47.5312 30.2031C47.7917 30.9323 47.9219 31.6875 47.9219 32.4688C47.9219 33.4844 47.6875 34.5911 47.2188 35.7891C46.75 36.987 46.138 38.1458 45.3828 39.2656C44.6536 40.3854 43.8203 41.401 42.8828 42.3125C41.9714 43.1979 41.0599 43.875 40.1484 44.3438C40.2005 44.8125 40.3047 45.5026 40.4609 46.4141C40.6172 47.2995 40.8255 48.1849 41.0859 49.0703C41.3724 49.9557 41.6979 50.724 42.0625 51.375C42.4531 52.026 42.9089 52.3516 43.4297 52.3516C43.6901 52.3516 43.9115 52.2734 44.0938 52.1172C44.3021 51.9609 44.4844 51.7526 44.6406 51.4922C44.7969 51.2318 44.9271 50.9453 45.0312 50.6328C45.1615 50.3203 45.2786 50.0208 45.3828 49.7344L45.6172 49.1875C45.6693 49.1094 45.6953 49.0573 45.6953 49.0312C45.7214 49.0052 45.7474 48.9661 45.7734 48.9141C45.9557 48.5755 46.125 48.263 46.2812 47.9766C46.4635 47.6901 46.7109 47.4427 47.0234 47.2344H46.9844C47.0885 47.1302 47.1927 47.0781 47.2969 47.0781C47.4271 47.0521 47.5443 47.0391 47.6484 47.0391C47.9349 47.0391 48.2474 47.1302 48.5859 47.3125C48.9245 47.4948 49.237 47.7292 49.5234 48.0156C49.8099 48.276 50.0443 48.5755 50.2266 48.9141C50.4089 49.2266 50.5 49.5391 50.5 49.8516ZM42.7656 32.625C42.7656 32.3646 42.7526 32.0911 42.7266 31.8047C42.7005 31.5182 42.6354 31.2708 42.5312 31.0625C42.1667 31.5052 41.8411 32.0391 41.5547 32.6641C41.2943 33.263 41.0729 33.901 40.8906 34.5781C40.7083 35.2292 40.5521 35.8932 40.4219 36.5703C40.3177 37.2474 40.2396 37.8724 40.1875 38.4453C40.8646 37.638 41.4635 36.7266 41.9844 35.7109C42.5052 34.6693 42.7656 33.6406 42.7656 32.625Z" fill="white"/>
<path d="M31.8281 57.0781C31.8281 57.599 31.6979 58.0156 31.4375 58.3281C31.2031 58.6406 30.7865 58.7969 30.1875 58.7969C29.875 58.7969 29.5495 58.7578 29.2109 58.6797C28.8724 58.6276 28.5469 58.5365 28.2344 58.4062C27.5833 58.224 27.0625 58.0547 26.6719 57.8984C26.3073 57.7422 26.0208 57.5339 25.8125 57.2734C25.6302 57.0391 25.513 56.7266 25.4609 56.3359C25.4089 55.9453 25.3698 55.4115 25.3438 54.7344C25.1354 49.3958 24.901 44.1094 24.6406 38.875C24.4062 33.6146 24.0156 28.3281 23.4688 23.0156C23.1042 24.8125 22.7526 26.6094 22.4141 28.4062C22.0755 30.2031 21.724 32.026 21.3594 33.875C20.9948 35.8021 20.6432 37.7682 20.3047 39.7734C19.9922 41.7786 19.4844 43.7188 18.7812 45.5938C18.4948 46.349 18.1432 46.9479 17.7266 47.3906C17.3099 47.8073 16.6719 48.0156 15.8125 48.0156C15.1875 48.0156 14.6797 47.9115 14.2891 47.7031C13.8984 47.4688 13.5208 47.1302 13.1562 46.6875C12.8177 46.3229 12.4531 45.6198 12.0625 44.5781C11.6719 43.5365 11.2552 42.3255 10.8125 40.9453C10.3958 39.5391 9.97917 38.0417 9.5625 36.4531C9.14583 34.8646 8.75521 33.3411 8.39062 31.8828C8.02604 30.3984 7.70052 29.0443 7.41406 27.8203C7.1276 26.5964 6.90625 25.6719 6.75 25.0469V30.3594C6.75 33.8229 6.8151 37.2734 6.94531 40.7109C7.07552 44.1484 7.29688 47.5729 7.60938 50.9844C7.6875 51.7396 7.79167 52.4948 7.92188 53.25C8.07812 54.0052 8.15625 54.7604 8.15625 55.5156C8.15625 56.1927 7.92188 56.6354 7.45312 56.8438C7.01042 57.0521 6.51562 57.1562 5.96875 57.1562C4.48438 57.1562 3.33854 56.8438 2.53125 56.2188C1.75 55.5677 1.35938 54.474 1.35938 52.9375C1.35938 49.7865 1.28125 46.6615 1.125 43.5625C0.96875 40.4635 0.890625 37.3385 0.890625 34.1875C0.890625 33.7448 0.890625 32.9766 0.890625 31.8828C0.916667 30.7891 0.942708 29.5 0.96875 28.0156C0.994792 26.5052 1.02083 24.8776 1.04688 23.1328C1.09896 21.362 1.15104 19.5781 1.20312 17.7812C1.25521 15.9844 1.30729 14.2396 1.35938 12.5469C1.41146 10.8281 1.46354 9.29167 1.51562 7.9375C1.56771 6.58333 1.61979 5.46354 1.67188 4.57812C1.75 3.66667 1.82812 3.11979 1.90625 2.9375C2.03646 2.57292 2.17969 2.33854 2.33594 2.23438C2.51823 2.13021 2.79167 2.07812 3.15625 2.07812C4.14583 2.07812 4.96615 2.29948 5.61719 2.74219C6.29427 3.15885 6.75 3.875 6.98438 4.89062C7.34896 5.4375 7.76562 6.4401 8.23438 7.89844C8.70312 9.33073 9.19792 11.0104 9.71875 12.9375C10.2396 14.8646 10.7604 16.9479 11.2812 19.1875C11.8281 21.401 12.3359 23.5365 12.8047 25.5938C13.2995 27.651 13.7422 29.5391 14.1328 31.2578C14.5495 32.9766 14.875 34.2917 15.1094 35.2031C15.8646 30.724 16.6328 26.2708 17.4141 21.8438C18.1953 17.4167 18.9375 12.9635 19.6406 8.48438C19.7708 7.72917 19.901 6.98698 20.0312 6.25781C20.1875 5.52865 20.2656 4.78646 20.2656 4.03125C20.2656 3.5625 20.2005 3.13281 20.0703 2.74219C19.9401 2.32552 19.875 1.89583 19.875 1.45312C19.875 0.90625 20.0443 0.580729 20.3828 0.476562C20.7474 0.346354 21.151 0.28125 21.5938 0.28125C22.0104 0.28125 22.5052 0.346354 23.0781 0.476562C23.651 0.606771 24.1979 0.802083 24.7188 1.0625C25.2656 1.32292 25.7214 1.64844 26.0859 2.03906C26.4766 2.42969 26.6719 2.88542 26.6719 3.40625C26.6719 4.31771 26.5938 5.28125 26.4375 6.29688C27.375 10.6979 28.1562 15.112 28.7812 19.5391C29.4062 23.9401 29.875 28.3802 30.1875 32.8594C30.5 36.7135 30.7474 40.5417 30.9297 44.3438C31.138 48.1458 31.3854 51.9479 31.6719 55.75C31.724 55.9844 31.763 56.2057 31.7891 56.4141C31.8151 56.6224 31.8281 56.8438 31.8281 57.0781Z" fill="white"/>
</svg>
