<svg width="43" height="46" viewBox="0 0 43 46" fill="none" xmlns="http://www.w3.org/2000/svg">
<path d="M19.9514 0C9.00216 0 2.20138 6.82031 2.20138 17.7812C2.20138 19.3438 2.41622 20.8828 2.63888 22.5312C3.24434 26.9727 3.87325 31.5781 0.201375 36.5625C0.0412191 36.7812 -0.0329999 37.043 0.0138751 37.3125C0.0607501 37.582 0.224813 37.8164 0.451375 37.9688C0.619344 38.0781 4.60372 40.6797 13.7014 41.6875C16.0061 44.4648 18.6506 46 21.2014 46C23.7639 46 26.4279 44.4727 28.7326 41.6875C37.8264 40.6719 42.0568 38.1094 42.2326 38C42.4748 37.8516 42.6193 37.5898 42.6701 37.3125C42.7209 37.0352 42.6584 36.7539 42.4826 36.5312C38.7561 31.7422 39.2561 27.668 39.7951 23.3438C39.9865 21.8008 40.2014 20.1953 40.2014 18.5625C40.2014 12.0273 37.2795 4.41016 29.0764 4.15625C25.6037 0.71875 22.2092 0 19.9514 0ZM28.0451 15.3438C29.5295 16.9219 32.2014 20.5312 32.2014 26.2812C32.2014 33.9531 27.4358 40.0625 27.3889 40.125C27.3811 40.1367 27.3967 40.1445 27.3889 40.1562C25.4201 42.6289 23.2248 44 21.2014 44C19.174 44 16.9592 42.6211 14.9826 40.125C14.9748 40.1133 14.9592 40.1055 14.9514 40.0938C14.9045 40.0508 10.2014 35.5703 10.2014 29C10.2014 23.9961 14.4983 22.9453 18.2951 22.0312C19.0803 21.8438 19.8108 21.6758 20.4826 21.4688C24.9709 20.0781 27.1233 17.125 28.0451 15.3438ZM15.7014 26C14.8733 26 14.2014 26.6719 14.2014 27.5C14.2014 28.3281 14.8733 29 15.7014 29C16.5295 29 17.2014 28.3281 17.2014 27.5C17.2014 26.6719 16.5295 26 15.7014 26ZM26.7014 26C25.8733 26 25.2014 26.6719 25.2014 27.5C25.2014 28.3281 25.8733 29 26.7014 29C27.5295 29 28.2014 28.3281 28.2014 27.5C28.2014 26.6719 27.5295 26 26.7014 26Z" fill="white"/>
</svg>
